{
	"asset":{
		"generator":"Khronos glTF Blender I/O v4.1.63",
		"version":"2.0"
	},
	"extensionsUsed":[
		"KHR_materials_specular"
	],
	"scene":0,
	"scenes":[
		{
			"name":"Scene",
			"nodes":[
				0,
				1
			]
		}
	],
	"nodes":[
		{
			"mesh":0,
			"name":"oni",
			"rotation":[
				0.7071068286895752,
				0,
				0,
				0.7071068286895752
			],
			"scale":[
				0.009999999776482582,
				0.009999999776482582,
				0.009999999776482582
			]
		},
		{
			"name":"oni.001",
			"rotation":[
				0.7071068286895752,
				0,
				0,
				0.7071068286895752
			]
		}
	],
	"materials":[
		{
			"doubleSided":true,
			"extensions":{
				"KHR_materials_specular":{
					"specularTexture":{
						"index":0
					}
				}
			},
			"name":"oni_material",
			"pbrMetallicRoughness":{
				"baseColorTexture":{
					"index":1
				},
				"metallicFactor":0.5,
				"roughnessFactor":0
			}
		}
	],
	"meshes":[
		{
			"name":"Mesh",
			"primitives":[
				{
					"attributes":{
						"POSITION":0,
						"NORMAL":1,
						"TEXCOORD_0":2
					},
					"indices":3,
					"material":0
				}
			]
		}
	],
	"textures":[
		{
			"sampler":0,
			"source":0
		},
		{
			"sampler":0,
			"source":1
		}
	],
	"images":[
		{
			"mimeType":"image/png",
			"name":"oni_spec",
			"uri":"oni_spec.png"
		},
		{
			"mimeType":"image/png",
			"name":"oni_diffuse",
			"uri":"oni_diffuse.png"
		}
	],
	"accessors":[
		{
			"bufferView":0,
			"componentType":5126,
			"count":101892,
			"max":[
				0.37485748529434204,
				0.40165525674819946,
				0.022228658199310303
			],
			"min":[
				-0.4055548310279846,
				-0.32316553592681885,
				-0.8403081893920898
			],
			"type":"VEC3"
		},
		{
			"bufferView":1,
			"componentType":5126,
			"count":101892,
			"type":"VEC3"
		},
		{
			"bufferView":2,
			"componentType":5126,
			"count":101892,
			"type":"VEC2"
		},
		{
			"bufferView":3,
			"componentType":5125,
			"count":544650,
			"type":"SCALAR"
		}
	],
	"bufferViews":[
		{
			"buffer":0,
			"byteLength":1222704,
			"byteOffset":0,
			"target":34962
		},
		{
			"buffer":0,
			"byteLength":1222704,
			"byteOffset":1222704,
			"target":34962
		},
		{
			"buffer":0,
			"byteLength":815136,
			"byteOffset":2445408,
			"target":34962
		},
		{
			"buffer":0,
			"byteLength":2178600,
			"byteOffset":3260544,
			"target":34963
		}
	],
	"samplers":[
		{
			"magFilter":9729,
			"minFilter":9987
		}
	],
	"buffers":[
		{
			"byteLength":5439144,
			"uri":"oni.bin"
		}
	]
}
